<svg width="240" height="240" viewBox="0 0 240 240" fill="none" xmlns="http://www.w3.org/2000/svg">
<path d="M166.587 115.953L157.998 130.887L166.178 145.112L155.952 162.895H139.5L130.998 177.68H110.544L102.042 162.895H85.5912L75.3646 145.112L85.5912 127.328H102.042L110.544 112.542H127.641L135.908 98.1685H156.361L166.587 115.953Z" fill="#FFFAEC"/>
<path d="M167.39 115.355L158.639 130.511L166.973 144.947L156.553 162.995H139.791L131.128 178H110.288L101.625 162.995H84.8645L74.4446 144.947L84.8645 126.899H101.626L110.288 111.895H127.708L136.13 97.3073H156.97L167.39 115.355ZM107.57 159.951L114.139 171.331H127.279L133.848 159.951L127.279 148.573H114.139L107.57 159.951ZM82.1458 144.946L88.7151 156.326H101.855L108.424 144.946L101.855 133.568H88.7151L82.1458 144.946ZM132.994 144.946L139.564 156.326H152.703L159.273 144.946L152.703 133.568H139.564L132.994 144.946ZM107.57 129.942L114.139 141.322H127.279L133.848 129.942L127.279 118.564H114.139L107.57 129.942ZM133.411 115.354L139.981 126.734H153.12L159.69 115.354L153.12 103.976H139.981L133.411 115.354Z" fill="#FFB742"/>
<path d="M154.265 81.9329L147.796 83.554L145.47 74.2708L130.836 99.972H113.262L104.092 114.977H87.4648L76.7607 133.328L71 129.968L83.6357 108.308H100.352L109.521 93.303H126.958L139.471 71.3304L130.959 73.4622L129.338 66.9935L149.271 62.0003L154.265 81.9329Z" fill="#FFB742"/>
</svg>
